<svg width="1933" height="220" viewBox="0 0 1933 220" fill="none" xmlns="http://www.w3.org/2000/svg">
<path d="M0.752001 -1.71661e-05H78.224V8.352H10.256V125.856H66.992V134.208H10.256V207.648H78.224V216H0.752001V-1.71661e-05ZM135.255 219.168C126.039 219.168 117.879 217.632 110.775 214.56C103.671 211.296 98.5828 207.168 95.5108 202.176V186.912C99.1588 195.168 104.151 201.312 110.487 205.344C116.823 209.184 124.887 211.104 134.679 211.104C144.087 211.104 151.671 208.224 157.431 202.464C163.191 196.512 166.071 188.928 166.071 179.712C166.071 171.84 164.439 165.792 161.175 161.568C157.911 157.152 152.631 152.736 145.335 148.32L134.391 141.984C126.519 137.184 120.567 133.44 116.535 130.752C112.695 127.872 109.623 124.704 107.319 121.248C105.015 117.6 103.863 113.376 103.863 108.576C103.863 100.896 106.551 94.752 111.927 90.144C117.303 85.536 124.311 83.232 132.951 83.232C143.511 83.232 152.343 85.632 159.447 90.432V103.104C153.495 95.232 144.951 91.296 133.815 91.296C127.671 91.296 122.679 92.832 118.839 95.904C114.999 98.976 113.079 102.912 113.079 107.712C113.079 111.936 114.231 115.68 116.535 118.944C118.839 122.016 122.007 124.896 126.039 127.584C130.263 130.272 137.175 134.304 146.775 139.68C156.567 145.248 163.767 151.008 168.375 156.96C172.983 162.72 175.287 170.304 175.287 179.712C175.287 191.616 171.351 201.216 163.479 208.512C155.799 215.616 146.391 219.168 135.255 219.168ZM250.356 217.728C236.148 217.728 224.34 213.408 214.932 204.768C205.716 196.128 201.108 184.224 201.108 169.056V34.272H210.324V86.4H250.068V94.464H210.324V169.056C210.324 181.728 214.068 191.712 221.556 199.008C229.236 206.112 238.836 209.664 250.356 209.664V217.728ZM337.654 211.392C347.638 211.392 357.142 208.8 366.166 203.616C375.19 198.432 382.678 191.328 388.63 182.304V196.992C381.526 204.864 373.75 210.624 365.302 214.272C356.854 217.728 347.254 219.456 336.502 219.456C324.598 219.456 313.366 216.288 302.806 209.952C292.438 203.616 284.086 195.168 277.75 184.608C271.606 174.048 268.534 162.816 268.534 150.912C268.534 138.048 271.606 126.528 277.75 116.352C283.894 105.984 292.246 97.92 302.806 92.16C313.558 86.4 325.462 83.52 338.518 83.52C358.486 83.52 375.478 91.392 389.494 107.136L299.062 196.416C305.398 201.6 311.542 205.44 317.494 207.936C323.446 210.24 330.166 211.392 337.654 211.392ZM277.75 150.048C277.75 165.984 283.03 179.616 293.59 190.944L377.974 107.136C371.638 101.568 365.494 97.632 359.542 95.328C353.59 92.832 346.486 91.584 338.23 91.584C326.518 91.584 316.054 94.176 306.838 99.36C297.814 104.352 290.71 111.264 285.526 120.096C280.342 128.928 277.75 138.912 277.75 150.048ZM363.574 30.528H375.382L335.35 63.648H323.254L363.574 30.528ZM464.668 217.728C450.46 217.728 438.652 213.408 429.244 204.768C420.028 196.128 415.42 184.224 415.42 169.056V34.272H424.636V86.4H464.38V94.464H424.636V169.056C424.636 181.728 428.38 191.712 435.868 199.008C443.548 206.112 453.148 209.664 464.668 209.664V217.728ZM500.126 56.736C497.438 56.736 495.038 55.776 492.926 53.856C491.006 51.936 490.046 49.536 490.046 46.656C490.046 43.968 491.006 41.664 492.926 39.744C495.038 37.824 497.438 36.864 500.126 36.864C502.814 36.864 505.118 37.824 507.038 39.744C509.15 41.664 510.206 43.968 510.206 46.656C510.206 49.536 509.15 51.936 507.038 53.856C505.118 55.776 502.814 56.736 500.126 56.736ZM495.518 86.4H504.734V216H495.518V86.4ZM608.731 219.744C596.251 219.744 584.731 216.768 574.171 210.816C563.803 204.864 555.547 196.704 549.403 186.336C543.259 175.968 540.187 164.256 540.187 151.2C540.187 139.104 543.259 127.968 549.403 117.792C555.547 107.424 563.899 99.168 574.459 93.024C585.211 86.88 597.019 83.808 609.883 83.808C620.635 83.808 629.851 85.536 637.531 88.992C645.211 92.448 652.699 97.824 659.995 105.12V120.672C653.659 111.264 646.555 104.16 638.683 99.36C631.003 94.368 621.403 91.872 609.883 91.872C599.323 91.872 589.339 94.656 579.931 100.224C570.715 105.6 563.323 112.896 557.755 122.112C552.187 131.328 549.403 141.216 549.403 151.776C549.403 163.296 552.091 173.664 557.467 182.88C562.843 191.904 570.043 199.008 579.067 204.192C588.283 209.184 598.171 211.68 608.731 211.68C630.235 211.68 647.323 201.984 659.995 182.592V198.144C653.083 205.44 645.403 210.912 636.955 214.56C628.699 218.016 619.291 219.744 608.731 219.744ZM746.544 219.168C734.256 219.168 722.832 216.096 712.272 209.952C701.712 203.808 693.36 195.552 687.216 185.184C681.072 174.624 678 163.296 678 151.2C678 139.104 681.072 127.872 687.216 117.504C693.36 106.944 701.712 98.592 712.272 92.448C722.832 86.304 734.256 83.232 746.544 83.232C759.024 83.232 770.832 86.592 781.968 93.312C793.104 99.84 800.88 108.384 805.296 118.944V86.4H814.512V216H805.296V183.744C800.112 194.496 792.048 203.136 781.104 209.664C770.352 216 758.832 219.168 746.544 219.168ZM747.12 211.104C757.68 211.104 767.472 208.416 776.496 203.04C785.52 197.472 792.624 190.176 797.808 181.152C803.184 171.936 805.872 161.952 805.872 151.2C805.872 140.64 803.184 130.752 797.808 121.536C792.432 112.32 785.232 105.024 776.208 99.648C767.184 94.08 757.392 91.296 746.832 91.296C736.272 91.296 726.384 94.08 717.168 99.648C708.144 105.216 700.848 112.608 695.28 121.824C689.904 131.04 687.216 140.928 687.216 151.488C687.216 162.048 689.904 171.936 695.28 181.152C700.848 190.176 708.24 197.472 717.456 203.04C726.672 208.416 736.56 211.104 747.12 211.104ZM918.752 -1.71661e-05H927.968C943.136 -1.71661e-05 954.272 3.55198 961.376 10.656C968.48 17.568 972.032 27.84 972.032 41.472C972.032 49.344 969.728 56.928 965.12 64.224C960.512 71.328 954.944 76.128 948.416 78.624C964.928 81.312 977.696 88.224 986.72 99.36C995.744 110.496 1000.26 125.088 1000.26 143.136C1000.26 157.536 997.088 170.304 990.752 181.44C984.416 192.384 975.68 200.928 964.544 207.072C953.6 213.024 941.408 216 927.968 216H918.752V-1.71661e-05ZM930.272 76.032C939.488 76.032 947.264 72.672 953.6 65.952C959.936 59.232 963.104 50.976 963.104 41.184C963.104 30.24 960.416 21.984 955.04 16.416C949.856 10.848 941.6 8.06398 930.272 8.06398H927.968V76.032H930.272ZM930.272 207.936C941.6 207.936 951.872 205.248 961.088 199.872C970.304 194.304 977.6 186.624 982.976 176.832C988.352 167.04 991.04 156 991.04 143.712C991.04 123.936 985.76 109.056 975.2 99.072C964.832 88.896 949.856 83.808 930.272 83.808H927.968V207.936H930.272ZM1030.3 86.4H1039.52V116.352C1043.36 106.944 1048.92 99.552 1056.22 94.176C1063.71 88.8 1072.16 86.112 1081.56 86.112C1087.52 86.112 1093.56 87.36 1099.71 89.856V100.512C1094.14 96.288 1087.9 94.176 1080.99 94.176C1074.08 94.176 1067.36 96.288 1060.83 100.512C1054.49 104.736 1049.31 110.4 1045.28 117.504C1041.44 124.608 1039.52 132.192 1039.52 140.256V216H1030.3V86.4ZM1176.9 211.392C1186.89 211.392 1196.39 208.8 1205.42 203.616C1214.44 198.432 1221.93 191.328 1227.88 182.304V196.992C1220.78 204.864 1213 210.624 1204.55 214.272C1196.1 217.728 1186.5 219.456 1175.75 219.456C1163.85 219.456 1152.62 216.288 1142.06 209.952C1131.69 203.616 1123.34 195.168 1117 184.608C1110.86 174.048 1107.78 162.816 1107.78 150.912C1107.78 138.048 1110.86 126.528 1117 116.352C1123.14 105.984 1131.5 97.92 1142.06 92.16C1152.81 86.4 1164.71 83.52 1177.77 83.52C1197.74 83.52 1214.73 91.392 1228.74 107.136L1138.31 196.416C1144.65 201.6 1150.79 205.44 1156.74 207.936C1162.7 210.24 1169.42 211.392 1176.9 211.392ZM1117 150.048C1117 165.984 1122.28 179.616 1132.84 190.944L1217.22 107.136C1210.89 101.568 1204.74 97.632 1198.79 95.328C1192.84 92.832 1185.74 91.584 1177.48 91.584C1165.77 91.584 1155.3 94.176 1146.09 99.36C1137.06 104.352 1129.96 111.264 1124.78 120.096C1119.59 128.928 1117 138.912 1117 150.048ZM1257.55 86.4H1266.77V115.2C1270.99 105.6 1278.19 97.92 1288.37 92.16C1298.54 86.208 1309.77 83.232 1322.06 83.232C1338 83.232 1350.57 88.32 1359.79 98.496C1369.2 108.48 1373.9 122.496 1373.9 140.544V216H1364.69V140.544C1364.69 124.992 1360.85 112.896 1353.17 104.256C1345.68 95.616 1335.12 91.296 1321.49 91.296C1311.5 91.296 1302.29 93.6 1293.84 98.208C1285.58 102.624 1278.96 108.768 1273.97 116.64C1269.17 124.512 1266.77 133.44 1266.77 143.424V216H1257.55V86.4ZM1471.33 219.168C1458.85 219.168 1447.33 216.096 1436.77 209.952C1426.4 203.808 1418.14 195.552 1412 185.184C1405.85 174.816 1402.78 163.488 1402.78 151.2C1402.78 138.912 1405.85 127.584 1412 117.216C1418.14 106.848 1426.4 98.592 1436.77 92.448C1447.33 86.304 1458.85 83.232 1471.33 83.232C1483.42 83.232 1494.94 86.496 1505.89 93.024C1516.83 99.36 1524.89 107.712 1530.08 118.08V-1.71661e-05H1539.29V216H1530.08V184.608C1524.32 194.976 1515.97 203.328 1505.02 209.664C1494.27 216 1483.04 219.168 1471.33 219.168ZM1471.04 211.104C1481.6 211.104 1491.39 208.416 1500.41 203.04C1509.63 197.472 1516.93 190.176 1522.3 181.152C1527.87 171.936 1530.65 162.048 1530.65 151.488C1530.65 140.928 1527.87 131.04 1522.3 121.824C1516.93 112.608 1509.63 105.216 1500.41 99.648C1491.39 94.08 1481.6 91.296 1471.04 91.296C1460.48 91.296 1450.69 94.08 1441.66 99.648C1432.64 105.024 1425.44 112.32 1420.06 121.536C1414.69 130.752 1412 140.64 1412 151.2C1412 161.952 1414.59 171.936 1419.77 181.152C1425.15 190.176 1432.35 197.472 1441.37 203.04C1450.59 208.416 1460.48 211.104 1471.04 211.104ZM1636.7 219.168C1624.41 219.168 1612.99 216.096 1602.43 209.952C1591.87 203.808 1583.52 195.552 1577.37 185.184C1571.23 174.624 1568.16 163.296 1568.16 151.2C1568.16 139.104 1571.23 127.872 1577.37 117.504C1583.52 106.944 1591.87 98.592 1602.43 92.448C1612.99 86.304 1624.41 83.232 1636.7 83.232C1649.18 83.232 1660.99 86.592 1672.12 93.312C1683.26 99.84 1691.04 108.384 1695.45 118.944V86.4H1704.67V216H1695.45V183.744C1690.27 194.496 1682.2 203.136 1671.26 209.664C1660.51 216 1648.99 219.168 1636.7 219.168ZM1637.28 211.104C1647.84 211.104 1657.63 208.416 1666.65 203.04C1675.68 197.472 1682.78 190.176 1687.96 181.152C1693.34 171.936 1696.03 161.952 1696.03 151.2C1696.03 140.64 1693.34 130.752 1687.96 121.536C1682.59 112.32 1675.39 105.024 1666.36 99.648C1657.34 94.08 1647.55 91.296 1636.99 91.296C1626.43 91.296 1616.54 94.08 1607.32 99.648C1598.3 105.216 1591 112.608 1585.44 121.824C1580.06 131.04 1577.37 140.928 1577.37 151.488C1577.37 162.048 1580.06 171.936 1585.44 181.152C1591 190.176 1598.4 197.472 1607.61 203.04C1616.83 208.416 1626.72 211.104 1637.28 211.104ZM1808.91 -1.71661e-05H1818.12C1833.29 -1.71661e-05 1844.43 3.55198 1851.53 10.656C1858.64 17.568 1862.19 27.84 1862.19 41.472C1862.19 49.344 1859.88 56.928 1855.28 64.224C1850.67 71.328 1845.1 76.128 1838.57 78.624C1855.08 81.312 1867.85 88.224 1876.88 99.36C1885.9 110.496 1890.41 125.088 1890.41 143.136C1890.41 157.536 1887.24 170.304 1880.91 181.44C1874.57 192.384 1865.84 200.928 1854.7 207.072C1843.76 213.024 1831.56 216 1818.12 216H1808.91V-1.71661e-05ZM1820.43 76.032C1829.64 76.032 1837.42 72.672 1843.76 65.952C1850.09 59.232 1853.26 50.976 1853.26 41.184C1853.26 30.24 1850.57 21.984 1845.2 16.416C1840.01 10.848 1831.76 8.06398 1820.43 8.06398H1818.12V76.032H1820.43ZM1820.43 207.936C1831.76 207.936 1842.03 205.248 1851.24 199.872C1860.46 194.304 1867.76 186.624 1873.13 176.832C1878.51 167.04 1881.2 156 1881.2 143.712C1881.2 123.936 1875.92 109.056 1865.36 99.072C1854.99 88.896 1840.01 83.808 1820.43 83.808H1818.12V207.936H1820.43ZM1922.18 218.592C1919.5 218.592 1917.1 217.632 1914.98 215.712C1913.06 213.792 1912.1 211.392 1912.1 208.512C1912.1 205.824 1913.06 203.52 1914.98 201.6C1917.1 199.68 1919.5 198.72 1922.18 198.72C1924.87 198.72 1927.18 199.68 1929.1 201.6C1931.21 203.52 1932.26 205.824 1932.26 208.512C1932.26 211.392 1931.21 213.792 1929.1 215.712C1927.18 217.632 1924.87 218.592 1922.18 218.592Z" fill="white"/>
</svg>
